HIERARCHY
ROOT simHips
{
  OFFSET 6.13146 95.3961 -0.669452
  CHANNELS 6 Xposition Yposition Zposition Zrotation Xrotation Yrotation
  JOINT simSpine
  {
    OFFSET -0.000360269 21.3001 -0.0169217
    CHANNELS 3 Zrotation Xrotation Yrotation
    JOINT simLeftArm
    {
      OFFSET 13.5181 21.3012 -2.3511e-005
      CHANNELS 3 Zrotation Xrotation Yrotation
      JOINT simLeftForeArm
      {
        OFFSET 24.5783 0 -6.3921e-005
        CHANNELS 3 Zrotation Xrotation Yrotation
        JOINT simLeftHand
        {
          OFFSET 24.5783 0 0
          CHANNELS 3 Zrotation Xrotation Yrotation
          End Site
          {
            OFFSET 7.32568 1.52588e-005 0.0169305
          }
        }
      }
    }
    JOINT simHead
    {
      OFFSET 0 27.4458 -0.00488811
      CHANNELS 3 Zrotation Xrotation Yrotation
      End Site
      {
        OFFSET 0 0 0
      }
    }
    JOINT simRightArm
    {
      OFFSET -13.5174 21.3012 -1.52733e-005
      CHANNELS 3 Zrotation Xrotation Yrotation
      JOINT simRightForeArm
      {
        OFFSET -24.5783 -0.000552281 0.000112897
        CHANNELS 3 Zrotation Xrotation Yrotation
        JOINT simRightHand
        {
          OFFSET -24.5783 0 1.19926e-005
          CHANNELS 3 Zrotation Xrotation Yrotation
          End Site
          {
            OFFSET -7.32568 1.52588e-005 0.0169305
          }
        }
      }
    }
  }
  JOINT simRightUpLeg
  {
    OFFSET -8.44614 -9.41038 0.835682
    CHANNELS 3 Zrotation Xrotation Yrotation
    JOINT simRightLeg
    {
      OFFSET -3.23466e-005 -40.9639 0
      CHANNELS 3 Zrotation Xrotation Yrotation
      JOINT simRightFoot
      {
        OFFSET 0 -40.9639 0
        CHANNELS 3 Zrotation Xrotation Yrotation
        End Site
        {
          OFFSET 0.50614 -9.67405 14.6709
        }
      }
    }
  }
  JOINT simLeftUpLeg
  {
    OFFSET 8.44614 -9.41038 0.835681
    CHANNELS 3 Zrotation Xrotation Yrotation
    JOINT simLeftLeg
    {
      OFFSET -0.00018133 -40.964 6.2497e-005
      CHANNELS 3 Zrotation Xrotation Yrotation
      JOINT simLeftFoot
      {
        OFFSET 0 -40.9639 0
        CHANNELS 3 Zrotation Xrotation Yrotation
        End Site
        {
          OFFSET -0.50614 -9.67405 14.6709
        }
      }
    }
  }
}
MOTION
Frames:	25
Frame Time:	0.0333333
3.73991 98.8138 -22.0367 5.51008 4.93086 -42.6388 2.47165 6.29071 7.81491 -66.7996 -8.12801 13.5847 -0.00085304 -8.73782e-006 -89.0625 -26.4441 -39.9848 -49.1581 -3.74924 -5.56653 13.3314 64.127 4.08257 38.5175 1.32427e-006 -8.89233e-006 106.941 170.607 -12.1902 -165.163 -21.4555 1.78838 -22.116 0.00320399 15.8801 0.00268252 27.2702 -14.8876 7.58955 28.0541 -31.5085 26.1169 -0.00202066 35.1993 -0.0735719 -16.0773 -2.60928 -4.23035 
3.92322 98.7471 -22.0935 5.69822 5.7425 -42.9228 2.40988 6.84082 7.32739 -66.7752 -7.84117 13.5058 -0.00085305 -8.11188e-006 -89.1297 -26.8135 -40.0702 -49.36 -3.4641 -6.12706 13.8575 64.5705 3.80186 37.9447 1.44419e-006 -9.27688e-006 107.697 170.854 -12.5813 -164.99 -21.2473 0.436221 -22.0527 0.00316558 16.6661 0.00269328 27.1711 -15.0368 7.56037 28.9774 -32.4067 27.0029 -0.00130567 35.6518 -0.0739863 -15.966 -2.64274 -4.32516 
4.09986 98.6799 -22.1496 5.87809 6.68551 -43.25 2.38919 7.33349 6.77623 -66.7657 -7.61952 13.4863 -0.000853047 -8.27109e-006 -89.1126 -26.6936 -39.6273 -49.314 -3.16456 -6.70232 14.403 64.9763 3.53936 37.2927 1.57639e-006 -9.68145e-006 108.496 170.997 -12.6329 -165.168 -20.9276 -0.995743 -21.978 0.00312875 17.4138 0.00270407 27.0515 -15.1704 7.51121 30.0844 -33.3364 28.0137 -0.000589614 36.0998 -0.0744059 -15.8695 -2.6756 -4.42585 
4.26385 98.6078 -22.194 6.06577 7.68936 -43.6175 2.33011 7.81876 6.27397 -66.6975 -7.4219 13.5203 -0.000853052 -7.9263e-006 -89.1496 -26.5953 -39.5025 -49.173 -2.81828 -7.3424 14.9772 65.3109 3.31356 36.5655 1.69753e-006 -1.00363e-005 109.2 171.022 -12.6044 -165.765 -20.5463 -2.41856 -21.8952 0.00309689 18.0557 0.00271378 26.9472 -15.2774 7.45958 31.2946 -34.2776 29.0561 0.000204191 36.5906 -0.0748764 -15.8019 -2.7541 -4.4811 
4.4306 98.5305 -22.2145 6.30916 8.74829 -44.0052 2.15335 8.29791 5.85507 -66.5541 -7.12096 13.4176 -0.00085303 -9.31177e-006 -89.0009 -26.9005 -39.6003 -49.6318 -2.36184 -8.09732 15.4025 65.6303 3.13832 35.8349 1.79751e-006 -1.03189e-005 109.763 170.839 -12.5693 -166.252 -20.1539 -3.83831 -21.8501 0.00307104 18.5729 0.0027219 26.8885 -15.3498 7.42095 32.5571 -35.2733 30.1304 0.00107928 37.1245 -0.0754013 -15.7437 -2.87562 -4.49027 
4.61819 98.4476 -22.1943 6.55325 9.84855 -44.3937 1.94945 8.82754 5.49405 -66.371 -6.85155 13.1773 -0.000852969 -1.23207e-005 -88.6781 -27.106 -39.3585 -49.8593 -1.85858 -8.98356 15.8177 66.0278 3.01147 35.1928 1.86713e-006 -1.05107e-005 110.146 170.504 -12.6554 -166.318 -19.7281 -5.22678 -21.8342 0.00304918 19.0081 0.00272894 26.8645 -15.3995 7.39846 33.884 -36.2824 31.214 0.000519416 37.69 -0.0735187 -15.6865 -3.03052 -4.46654 
4.79871 98.3585 -22.1472 6.80404 10.9928 -44.7695 1.83621 9.25818 5.19625 -66.2094 -6.57035 12.8778 -0.000852833 -1.72361e-005 -88.1505 -27.2095 -38.8698 -49.9082 -1.44923 -9.7745 16.2636 66.3892 3.03214 34.5641 -0.00977901 -1.05161e-005 110.157 169.853 -12.5542 -166.84 -19.2801 -6.61997 -21.8471 0.00279343 19.4411 0.0034388 26.8393 -15.4589 7.38558 35.274 -37.3038 32.3066 -4.04108e-005 38.2713 -0.0716657 -15.6315 -3.2106 -4.43013 
4.9583 98.2638 -22.0733 7.11352 12.0972 -45.1267 1.70499 9.58655 5.01721 -66.0099 -6.27615 12.5335 -0.000852638 -2.24889e-005 -87.5866 -27.4171 -38.5269 -50.0872 -1.18005 -10.3889 16.5727 66.7531 3.06404 33.9831 0.000551148 -1.04146e-005 109.954 169.499 -12.4403 -167.114 -18.9069 -8.01334 -21.8834 0.00244528 19.9294 0.00437924 26.8109 -15.556 7.3819 36.6174 -38.3109 33.3958 0.000149111 38.8463 -0.0697962 -15.5754 -3.40097 -4.39762 
5.09123 98.1678 -21.9805 7.46389 13.1082 -45.4386 1.50775 9.88136 4.97255 -65.8493 -6.03212 12.1984 -0.000852406 -2.74413e-005 -87.0547 -27.4346 -38.3182 -50.0342 -0.903578 -10.9871 16.885 67.176 3.06176 33.5024 -0.00640693 -1.02112e-005 109.548 169.616 -12.4298 -167.165 -18.6332 -9.35017 -21.9447 0.00201726 20.4711 0.00549199 26.7746 -15.6925 7.37958 37.8456 -39.2695 34.4302 0.000770889 39.3882 -0.0679018 -15.512 -3.58452 -4.37224 
5.19402 98.0733 -21.8722 7.85514 14.0363 -45.6887 1.26798 10.1458 5.0174 -65.7523 -5.86464 11.8368 -0.000852087 -3.30571e-005 -86.4512 -27.4672 -38.3337 -49.8652 -0.672377 -11.5979 17.0601 67.6717 3.03587 33.0811 -0.00940603 -9.95278e-006 109.034 170.049 -12.685 -167.139 -18.4465 -10.6061 -22.0536 0.00152832 21.0241 0.00671667 26.7402 -15.8491 7.37841 38.9518 -40.1947 35.4007 0.00146017 39.8933 -0.0659984 -15.4366 -3.76497 -4.3591 
5.25359 97.9903 -21.7554 8.3453 14.8591 -45.8621 0.904755 10.3058 5.17839 -65.6465 -5.71065 11.506 -0.000851698 -3.88263e-005 -85.8309 -27.5622 -38.3872 -49.7879 -0.507647 -12.0827 16.9203 68.1415 3.03333 32.6207 -0.0117994 -9.68949e-006 108.512 170.322 -12.9976 -167.073 -18.398 -11.7625 -22.2646 0.00100569 21.5307 0.00798994 26.7094 -16.007 7.38254 39.8542 -41.1106 36.2847 0.00218747 40.3196 -0.0641162 -15.3469 -3.91639 -4.34898 
5.26149 97.9212 -21.6308 8.88937 15.6047 -46.0025 0.480938 10.3549 5.4318 -65.5662 -5.5775 11.2853 -0.000851267 -4.435e-005 -85.2365 -27.5292 -38.2234 -50.0472 -0.399587 -12.4032 16.6655 68.3841 3.16497 32.2532 -0.0136302 -9.39299e-006 107.926 170.132 -13.071 -166.934 -18.4218 -12.8244 -22.5298 0.00047689 21.978 0.00924812 26.6731 -16.1612 7.38856 40.6322 -41.9725 37.1411 0.00269281 40.6662 -0.0618708 -15.2366 -4.02829 -4.35419 
5.22164 97.8666 -21.5169 9.43728 16.3557 -46.0757 0.133369 10.3099 5.69942 -65.5882 -5.60017 11.2093 -0.00085086 -4.89872e-005 -84.7371 -27.3815 -37.8097 -50.0234 -0.280556 -12.7824 16.3605 68.3785 3.35678 32.0079 -0.0149416 -9.0767e-006 107.303 169.85 -13.0995 -166.928 -18.425 -13.8255 -22.862 -3.32444e-005 22.3838 0.0104284 26.6142 -16.3222 7.3932 41.3795 -42.8318 37.9559 0.00309065 40.916 -0.0594781 -15.106 -4.06169 -4.34921 
5.1552 97.8195 -21.4198 10.027 17.181 -46.0192 -0.136083 10.1158 5.87027 -65.6891 -5.75578 11.3033 -0.000850607 -5.16538e-005 -84.4497 -27.306 -37.6575 -49.7352 -0.108547 -13.312 16.1018 68.277 3.5591 31.8379 -0.0157767 -8.75727e-006 106.676 169.781 -13.5659 -167.236 -18.4284 -14.8505 -23.3481 -0.000509424 22.8103 0.0114718 26.5371 -16.5136 7.3944 42.1016 -43.8365 38.6797 0.00303738 41.0692 -0.056427 -14.938 -4.00224 -4.26918 
5.06034 97.7728 -21.344 10.7216 18.0653 -45.8268 -0.489442 9.76807 5.93754 -65.7082 -5.8261 11.5165 -0.000850488 -5.28686e-005 -84.3187 -27.2602 -37.7395 -49.5591 0.146647 -13.894 15.8726 68.3332 3.73784 31.6842 -0.0161787 -8.46908e-006 106.112 169.789 -14.3166 -167.557 -18.5129 -15.9599 -24.026 -0.000940903 23.3266 0.0123213 26.4426 -16.7663 7.3888 42.7563 -45.0471 39.3055 0.00220116 41.1364 -0.0522148 -14.7148 -3.84113 -4.1031 
4.942 97.7255 -21.3131 11.4445 19.1079 -45.5047 -0.763843 9.34779 5.89342 -65.7154 -5.8559 11.6282 -0.000850316 -5.45687e-005 -84.1354 -27.3148 -37.744 -49.6061 0.682663 -14.5022 15.7426 68.4511 3.92454 31.534 -0.0161907 -8.30009e-006 105.782 169.82 -14.9997 -167.44 -18.5614 -17.2019 -24.8715 -0.00130459 23.9484 0.0129155 26.3206 -17.0848 7.36409 43.5128 -46.4764 39.8483 -0.000388337 41.0938 -0.0453956 -14.406 -3.55009 -3.90313 
4.7917 97.6463 -21.2831 12.1099 20.3221 -44.9208 -0.963844 8.97003 5.73778 -65.7399 -5.82518 11.5512 -0.000850195 -5.57358e-005 -84.0095 -27.2138 -37.7331 -49.4314 1.39782 -15.3071 15.4941 68.5566 4.01168 31.44 -0.0158558 -8.14263e-006 105.475 169.583 -15.6127 -167.869 -18.5571 -18.3995 -25.9558 -0.00154528 24.5843 0.01318 26.3346 -17.4377 7.35846 44.4163 -48.2136 40.2588 -0.00377922 41.1728 -0.0368398 -13.9757 -3.29362 -3.7003 
4.6264 97.5044 -21.2108 12.691 21.6172 -44.151 -1.20933 8.71735 5.51446 -65.7807 -5.64735 11.3263 -0.000850062 -5.69874e-005 -83.8745 -26.9573 -37.6623 -49.8856 2.17621 -16.4042 15.3902 68.5468 3.98289 31.364 -0.0152172 -8.04972e-006 105.294 169.138 -15.4367 -168.563 -18.5815 -19.5793 -27.1401 -0.00166558 25.3999 0.013064 26.4477 -17.9176 7.38568 45.6043 -50.1823 41.1152 -1.59716e-005 41.6958 -0.0272996 -13.3267 -3.17906 -3.42001 
4.47234 97.2526 -21.036 13.1237 22.886 -43.0842 -1.46104 8.78474 5.21475 -65.745 -5.27252 10.9029 -0.000850006 -5.75062e-005 -83.8185 -26.4704 -37.6933 -49.6834 2.21591 -16.9874 14.5238 68.6418 3.7821 31.6096 -0.0143181 -7.92788e-006 105.057 168.835 -14.7962 -168.212 -18.7689 -20.6394 -28.4782 -0.0016553 26.5502 0.0125135 26.6955 -18.6153 7.47373 47.0952 -52.4349 42.6132 -0.0131729 42.8854 -0.0154421 -12.3268 -3.19488 -2.92883 
4.28635 96.8306 -20.6718 13.2902 24.0572 -41.792 -1.64953 9.11248 4.89923 -65.6855 -5.07461 10.0798 -0.000849861 -5.8827e-005 -83.676 -25.6709 -37.6925 -48.2808 2.03171 -16.6194 13.2506 68.8493 3.54932 32.2995 -0.0132016 -7.59967e-006 104.42 169.099 -14.8578 -167.016 -19.0347 -21.3745 -29.7855 -0.00143143 27.9835 0.0114434 27.149 -19.5979 7.6162 49.0198 -54.5983 45.2416 -0.000908946 44.9104 -0.00526053 -10.8955 -3.92259 -2.41414 
4.04925 96.1818 -19.848 12.9225 24.8831 -40.0666 -1.26622 9.29062 4.61633 -65.636 -4.45208 9.00394 -0.000849283 -6.38324e-005 -83.1354 -25.8845 -38.1463 -47.32 1.00245 -12.7659 12.2298 68.9259 3.40339 32.9423 -0.011911 -7.03094e-006 103.32 168.511 -14.3878 -166.812 -19.3334 -20.9991 -31.0788 8.60131e-005 29.2733 0.00787766 28.0344 -20.6644 7.96278 51.3354 -56.5196 49.2646 0.000559556 48.6185 0.00845469 -8.66772 -5.84274 -1.64755 
3.66722 95.3637 -18.1794 11.8529 24.6198 -38.0434 -0.995399 9.35403 4.36251 -65.3677 -3.96256 7.89658 -0.000848218 -7.21294e-005 -82.238 -26.667 -38.4286 -46.5217 0.082668 -3.33407 11.127 69.08 3.44177 33.354 -0.0104893 -6.37263e-006 102.053 168.313 -14.5389 -165.778 -19.5936 -18.0995 -32.1303 -1.76247e-005 29.0744 -0.00462625 29.5951 -21.1015 8.62104 51.6508 -57.3506 51.3363 0.000459477 53.4163 0.0227178 -6.31384 -9.78546 -0.810428 
3.07191 94.4296 -15.3761 10.1235 22.9934 -35.9341 -0.566277 9.08296 4.82929 -64.632 -3.61402 7.62291 -0.000848467 -7.02805e-005 -82.4381 -25.9555 -38.3282 -45.691 -1.5404 7.44515 10.0597 69.3517 3.32612 33.1752 -0.00897948 -6.01119e-006 101.36 167.543 -13.0091 -165.141 -19.9667 -12.7449 -32.2334 1.12036e-006 27.7511 -0.0337437 31.4639 -20.1291 8.90408 48.8179 -56.5631 49.2698 0.000101968 58.4975 0.0278247 -4.95655 -15.4569 -1.06566 
2.44894 93.638 -11.2111 7.97213 20.132 -32.8685 0.347523 8.07492 5.15677 -63.0966 -3.41167 8.86333 -0.000851415 -4.25338e-005 -85.432 -25.2713 -39.2839 -42.0466 -1.48206 9.88236 8.02796 69.9314 2.49524 31.436 -0.00742464 -6.87735e-006 103.024 166.416 -9.68249 -162.26 -20.1389 -3.69766 -32.5039 -2.78692e-005 22.8897 -0.095076 32.6117 -16.5233 8.20175 41.5015 -54.7575 41.7693 0.00071017 63.0736 0.027727 -4.24766 -21.9934 -1.23807 
2.08509 93.2315 -5.39926 5.98882 16.1622 -31.1422 1.67596 6.06873 6.46129 -60.9869 -3.54769 11.4448 -0.00085308 -5.7356e-006 -89.3847 -24.7191 -38.8893 -42.7438 -0.0311782 3.22506 7.10128 69.9329 1.85615 28.5056 -0.00586791 -8.45738e-006 106.089 165.375 -8.63622 -161.419 -20.454 7.21615 -31.959 3.44354e-005 14.4938 -0.213807 32.7217 -7.96577 5.17711 32.6611 -49.9068 33.1033 -0.00161355 66.6631 0.0266211 -4.03132 -28.6308 -1.03826 
